<?xml version="1.0" encoding="UTF-8" standalone="no"?>
<!DOCTYPE svg PUBLIC "-//W3C//DTD SVG 1.1//EN"
 "http://www.w3.org/Graphics/SVG/1.1/DTD/svg11.dtd">
<!-- Generated by graphviz version 2.43.0 (0)
 -->
<!-- Title: %3 Pages: 1 -->
<svg width="961pt" height="650pt"
 viewBox="0.00 0.00 961.00 650.00" xmlns="http://www.w3.org/2000/svg" xmlns:xlink="http://www.w3.org/1999/xlink">
<g id="graph0" class="graph" transform="scale(1 1) rotate(0) translate(4 646)">
<title>%3</title>
<g id="a_graph0"><a xlink:title="A generic binary format for trusted descriptors (an info trusted by the nano signed by a Ledger key)&#10;">
<polygon fill="white" stroke="transparent" points="-4,4 -4,-646 957,-646 957,4 -4,4"/>
</a>
</g>
<g id="clust1" class="cluster">
<title>cluster__nano_trusted_desc</title>
<g id="a_clust1"><a xlink:title="A generic binary format for trusted descriptors (an info trusted by the nano signed by a Ledger key)&#10;">
<polygon fill="none" stroke="black" stroke-dasharray="1,5" points="8,-8 8,-634 945,-634 945,-8 8,-8"/>
<text text-anchor="middle" x="476.5" y="-618.8" font-family="Times,serif" font-size="14.00">NanoTrustedDesc</text>
</a>
</g>
</g>
<g id="clust2" class="cluster">
<title>cluster__nft_body</title>
<g id="a_clust2"><a xlink:title="An NFT collection descriptor">
<polygon fill="none" stroke="black" stroke-dasharray="1,5" points="663,-233 663,-404 920,-404 920,-233 663,-233"/>
<text text-anchor="middle" x="791.5" y="-388.8" font-family="Times,serif" font-size="14.00">NanoTrustedDesc::NftBody</text>
</a>
</g>
</g>
<g id="clust3" class="cluster">
<title>cluster__challenge</title>
<g id="a_clust3"><a xlink:title="An optional challenge enabling proving freshness of the descriptor">
<polygon fill="none" stroke="black" stroke-dasharray="1,5" points="311,-365 311,-494 626,-494 626,-365 311,-365"/>
<text text-anchor="middle" x="468.5" y="-478.8" font-family="Times,serif" font-size="14.00">NanoTrustedDesc::Challenge</text>
</a>
</g>
</g>
<g id="clust4" class="cluster">
<title>cluster__plugin_body</title>
<g id="a_clust4"><a xlink:title="A plugin descriptor">
<polygon fill="none" stroke="black" stroke-dasharray="1,5" points="663,-412 663,-603 920,-603 920,-412 663,-412"/>
<text text-anchor="middle" x="791.5" y="-587.8" font-family="Times,serif" font-size="14.00">NanoTrustedDesc::PluginBody</text>
</a>
</g>
</g>
<g id="clust5" class="cluster">
<title>cluster__signature</title>
<g id="a_clust5"><a xlink:title="a signature container">
<polygon fill="none" stroke="black" stroke-dasharray="1,5" points="357,-126 357,-255 581,-255 581,-126 357,-126"/>
<text text-anchor="middle" x="469" y="-239.8" font-family="Times,serif" font-size="14.00">NanoTrustedDesc::Signature</text>
</a>
</g>
</g>
<g id="clust6" class="cluster">
<title>cluster__name_body</title>
<g id="a_clust6"><a xlink:title="A trusted name descriptor">
<polygon fill="none" stroke="black" stroke-dasharray="1,5" points="646,-16 646,-225 937,-225 937,-16 646,-16"/>
<text text-anchor="middle" x="791.5" y="-209.8" font-family="Times,serif" font-size="14.00">NanoTrustedDesc::NameBody</text>
</a>
</g>
</g>
<!-- nano_trusted_desc__seq -->
<g id="node1" class="node">
<title>nano_trusted_desc__seq</title>
<polygon fill="#e0ffe0" stroke="transparent" points="24.5,-404 24.5,-425 55.5,-425 55.5,-404 24.5,-404"/>
<polygon fill="none" stroke="black" points="24.5,-404 24.5,-425 55.5,-425 55.5,-404 24.5,-404"/>
<text text-anchor="start" x="27.5" y="-410.8" font-family="Times,serif" font-size="14.00">pos</text>
<polygon fill="#e0ffe0" stroke="transparent" points="55.5,-404 55.5,-425 89.5,-425 89.5,-404 55.5,-404"/>
<polygon fill="none" stroke="black" points="55.5,-404 55.5,-425 89.5,-425 89.5,-404 55.5,-404"/>
<text text-anchor="start" x="58.5" y="-410.8" font-family="Times,serif" font-size="14.00">size</text>
<polygon fill="#e0ffe0" stroke="transparent" points="89.5,-404 89.5,-425 200.5,-425 200.5,-404 89.5,-404"/>
<polygon fill="none" stroke="black" points="89.5,-404 89.5,-425 200.5,-425 200.5,-404 89.5,-404"/>
<text text-anchor="start" x="129" y="-410.8" font-family="Times,serif" font-size="14.00">type</text>
<polygon fill="#e0ffe0" stroke="transparent" points="200.5,-404 200.5,-425 275.5,-425 275.5,-404 200.5,-404"/>
<polygon fill="none" stroke="black" points="200.5,-404 200.5,-425 275.5,-425 275.5,-404 200.5,-404"/>
<text text-anchor="start" x="231" y="-410.8" font-family="Times,serif" font-size="14.00">id</text>
<g id="a_node1_0"><a xlink:title="Type of the descriptor">
<polygon fill="none" stroke="black" points="24.5,-383 24.5,-404 55.5,-404 55.5,-383 24.5,-383"/>
<text text-anchor="start" x="35" y="-389.8" font-family="Times,serif" font-size="14.00">0</text>
</a>
</g>
<g id="a_node1_1"><a xlink:title="Type of the descriptor">
<polygon fill="none" stroke="black" points="55.5,-383 55.5,-404 89.5,-404 89.5,-383 55.5,-383"/>
<text text-anchor="start" x="67.5" y="-389.8" font-family="Times,serif" font-size="14.00">1</text>
</a>
</g>
<g id="a_node1_2"><a xlink:title="Type of the descriptor">
<polygon fill="none" stroke="black" points="89.5,-383 89.5,-404 200.5,-404 200.5,-383 89.5,-383"/>
<text text-anchor="start" x="95" y="-389.8" font-family="Times,serif" font-size="14.00">u1→DescType</text>
</a>
</g>
<g id="a_node1_3"><a xlink:title="Type of the descriptor">
<polygon fill="none" stroke="black" points="200.5,-383 200.5,-404 275.5,-404 275.5,-383 200.5,-383"/>
<text text-anchor="start" x="222" y="-389.8" font-family="Times,serif" font-size="14.00">type</text>
</a>
</g>
<g id="a_node1_4"><a xlink:title="Version, currently fixed to 0x01">
<polygon fill="none" stroke="black" points="24.5,-362 24.5,-383 55.5,-383 55.5,-362 24.5,-362"/>
<text text-anchor="start" x="35" y="-368.8" font-family="Times,serif" font-size="14.00">1</text>
</a>
</g>
<g id="a_node1_5"><a xlink:title="Version, currently fixed to 0x01">
<polygon fill="none" stroke="black" points="55.5,-362 55.5,-383 89.5,-383 89.5,-362 55.5,-362"/>
<text text-anchor="start" x="67.5" y="-368.8" font-family="Times,serif" font-size="14.00">1</text>
</a>
</g>
<g id="a_node1_6"><a xlink:title="Version, currently fixed to 0x01">
<polygon fill="none" stroke="black" points="89.5,-362 89.5,-383 200.5,-383 200.5,-362 89.5,-362"/>
<text text-anchor="start" x="92.5" y="-368.8" font-family="Times,serif" font-size="14.00">bytes={0x01}</text>
</a>
</g>
<g id="a_node1_7"><a xlink:title="Version, currently fixed to 0x01">
<polygon fill="none" stroke="black" points="200.5,-362 200.5,-383 275.5,-383 275.5,-362 200.5,-362"/>
<text text-anchor="start" x="211.5" y="-368.8" font-family="Times,serif" font-size="14.00">version</text>
</a>
</g>
<g id="a_node1_8"><a xlink:title="Signing key identifier, unique to Ledger. &#160;The corresponding certificate must be passed to the application before use. ">
<polygon fill="none" stroke="black" points="24.5,-341 24.5,-362 55.5,-362 55.5,-341 24.5,-341"/>
<text text-anchor="start" x="35" y="-347.8" font-family="Times,serif" font-size="14.00">2</text>
</a>
</g>
<g id="a_node1_9"><a xlink:title="Signing key identifier, unique to Ledger. &#160;The corresponding certificate must be passed to the application before use. ">
<polygon fill="none" stroke="black" points="55.5,-341 55.5,-362 89.5,-362 89.5,-341 55.5,-341"/>
<text text-anchor="start" x="67.5" y="-347.8" font-family="Times,serif" font-size="14.00">1</text>
</a>
</g>
<g id="a_node1_10"><a xlink:title="Signing key identifier, unique to Ledger. &#160;The corresponding certificate must be passed to the application before use. ">
<polygon fill="none" stroke="black" points="89.5,-341 89.5,-362 200.5,-362 200.5,-341 89.5,-341"/>
<text text-anchor="start" x="95.5" y="-347.8" font-family="Times,serif" font-size="14.00">u1→KeyEnum</text>
</a>
</g>
<g id="a_node1_11"><a xlink:title="Signing key identifier, unique to Ledger. &#160;The corresponding certificate must be passed to the application before use. ">
<polygon fill="none" stroke="black" points="200.5,-341 200.5,-362 275.5,-362 275.5,-341 200.5,-341"/>
<text text-anchor="start" x="225.5" y="-347.8" font-family="Times,serif" font-size="14.00">key</text>
</a>
</g>
<g id="a_node1_12"><a xlink:title="An optional challenge to prove freshness of the descriptor">
<polygon fill="none" stroke="black" points="24.5,-320 24.5,-341 55.5,-341 55.5,-320 24.5,-320"/>
<text text-anchor="start" x="35" y="-326.8" font-family="Times,serif" font-size="14.00">3</text>
</a>
</g>
<g id="a_node1_13"><a xlink:title="An optional challenge to prove freshness of the descriptor">
<polygon fill="none" stroke="black" points="55.5,-320 55.5,-341 89.5,-341 89.5,-320 55.5,-320"/>
<text text-anchor="start" x="65.5" y="-326.8" font-family="Times,serif" font-size="14.00">...</text>
</a>
</g>
<g id="a_node1_14"><a xlink:title="An optional challenge to prove freshness of the descriptor">
<polygon fill="none" stroke="black" points="89.5,-320 89.5,-341 200.5,-341 200.5,-320 89.5,-320"/>
<text text-anchor="start" x="109" y="-326.8" font-family="Times,serif" font-size="14.00">Challenge</text>
</a>
</g>
<g id="a_node1_15"><a xlink:title="An optional challenge to prove freshness of the descriptor">
<polygon fill="none" stroke="black" points="200.5,-320 200.5,-341 275.5,-341 275.5,-320 200.5,-320"/>
<text text-anchor="start" x="203.5" y="-326.8" font-family="Times,serif" font-size="14.00">challenge</text>
</a>
</g>
<g id="a_node1_16"><a xlink:title="Body of the descriptor, based on type">
<polygon fill="none" stroke="black" points="24.5,-299 24.5,-320 55.5,-320 55.5,-299 24.5,-299"/>
<text text-anchor="start" x="33" y="-305.8" font-family="Times,serif" font-size="14.00">...</text>
</a>
</g>
<g id="a_node1_17"><a xlink:title="Body of the descriptor, based on type">
<polygon fill="none" stroke="black" points="55.5,-299 55.5,-320 89.5,-320 89.5,-299 55.5,-299"/>
<text text-anchor="start" x="65.5" y="-305.8" font-family="Times,serif" font-size="14.00">...</text>
</a>
</g>
<g id="a_node1_18"><a xlink:title="Body of the descriptor, based on type">
<polygon fill="none" stroke="black" points="89.5,-299 89.5,-320 200.5,-320 200.5,-299 89.5,-299"/>
<text text-anchor="start" x="98" y="-305.8" font-family="Times,serif" font-size="14.00">switch (type)</text>
</a>
</g>
<g id="a_node1_19"><a xlink:title="Body of the descriptor, based on type">
<polygon fill="none" stroke="black" points="200.5,-299 200.5,-320 275.5,-320 275.5,-299 200.5,-299"/>
<text text-anchor="start" x="220.5" y="-305.8" font-family="Times,serif" font-size="14.00">body</text>
</a>
</g>
<g id="a_node1_20"><a xlink:title="Signature of the descriptor computed over other fields">
<polygon fill="none" stroke="black" points="24.5,-278 24.5,-299 55.5,-299 55.5,-278 24.5,-278"/>
<text text-anchor="start" x="33" y="-284.8" font-family="Times,serif" font-size="14.00">...</text>
</a>
</g>
<g id="a_node1_21"><a xlink:title="Signature of the descriptor computed over other fields">
<polygon fill="none" stroke="black" points="55.5,-278 55.5,-299 89.5,-299 89.5,-278 55.5,-278"/>
<text text-anchor="start" x="65.5" y="-284.8" font-family="Times,serif" font-size="14.00">...</text>
</a>
</g>
<g id="a_node1_22"><a xlink:title="Signature of the descriptor computed over other fields">
<polygon fill="none" stroke="black" points="89.5,-278 89.5,-299 200.5,-299 200.5,-278 89.5,-278"/>
<text text-anchor="start" x="109.5" y="-284.8" font-family="Times,serif" font-size="14.00">Signature</text>
</a>
</g>
<g id="a_node1_23"><a xlink:title="Signature of the descriptor computed over other fields">
<polygon fill="none" stroke="black" points="200.5,-278 200.5,-299 275.5,-299 275.5,-278 200.5,-278"/>
<text text-anchor="start" x="227" y="-284.8" font-family="Times,serif" font-size="14.00">sig</text>
</a>
</g>
</g>
<!-- nano_trusted_desc__seq&#45;&gt;nano_trusted_desc__seq -->
<g id="edge6" class="edge">
<title>nano_trusted_desc__seq:type_type&#45;&gt;nano_trusted_desc__seq:body_type</title>
<path fill="none" stroke="#404040" d="M215.27,-404.07C159.95,-430.31 167.7,-447.5 238.5,-447.5 306.88,-447.5 316.44,-368.58 267.19,-326.25"/>
<polygon fill="#404040" stroke="#404040" points="269.2,-323.38 259.14,-320.04 264.92,-328.92 269.2,-323.38"/>
</g>
<!-- nano_trusted_desc__seq_body_switch -->
<g id="node2" class="node">
<title>nano_trusted_desc__seq_body_switch</title>
<polygon fill="#f0f2e4" stroke="transparent" points="358.5,-330 358.5,-351 491.5,-351 491.5,-330 358.5,-330"/>
<polygon fill="none" stroke="black" points="358.5,-330 358.5,-351 491.5,-351 491.5,-330 358.5,-330"/>
<text text-anchor="start" x="409" y="-336.8" font-family="Times,serif" font-size="14.00">case</text>
<polygon fill="#f0f2e4" stroke="transparent" points="491.5,-330 491.5,-351 579.5,-351 579.5,-330 491.5,-330"/>
<polygon fill="none" stroke="black" points="491.5,-330 491.5,-351 579.5,-351 579.5,-330 491.5,-330"/>
<text text-anchor="start" x="519.5" y="-336.8" font-family="Times,serif" font-size="14.00">type</text>
<polygon fill="none" stroke="black" points="358.5,-309 358.5,-330 491.5,-330 491.5,-309 358.5,-309"/>
<text text-anchor="start" x="361.5" y="-315.8" font-family="Times,serif" font-size="14.00">:desc_type_plugin</text>
<polygon fill="none" stroke="black" points="491.5,-309 491.5,-330 579.5,-330 579.5,-309 491.5,-309"/>
<text text-anchor="start" x="494.5" y="-315.8" font-family="Times,serif" font-size="14.00">PluginBody</text>
<polygon fill="none" stroke="black" points="358.5,-288 358.5,-309 491.5,-309 491.5,-288 358.5,-288"/>
<text text-anchor="start" x="373.5" y="-294.8" font-family="Times,serif" font-size="14.00">:desc_type_nft</text>
<polygon fill="none" stroke="black" points="491.5,-288 491.5,-309 579.5,-309 579.5,-288 491.5,-288"/>
<text text-anchor="start" x="505.5" y="-294.8" font-family="Times,serif" font-size="14.00">NftBody</text>
<polygon fill="none" stroke="black" points="358.5,-267 358.5,-288 491.5,-288 491.5,-267 358.5,-267"/>
<text text-anchor="start" x="364.5" y="-273.8" font-family="Times,serif" font-size="14.00">:desc_type_name</text>
<polygon fill="none" stroke="black" points="491.5,-267 491.5,-288 579.5,-288 579.5,-267 491.5,-267"/>
<text text-anchor="start" x="496" y="-273.8" font-family="Times,serif" font-size="14.00">NameBody</text>
</g>
<!-- nano_trusted_desc__seq&#45;&gt;nano_trusted_desc__seq_body_switch -->
<g id="edge2" class="edge">
<title>nano_trusted_desc__seq:body_type&#45;&gt;nano_trusted_desc__seq_body_switch</title>
<path fill="none" stroke="black" stroke-width="2" d="M276.5,-309C296.97,-309 318.67,-309 339.82,-309"/>
<polygon fill="black" stroke="black" stroke-width="2" points="339.82,-312.5 349.82,-309 339.82,-305.5 339.82,-312.5"/>
</g>
<!-- challenge__seq -->
<g id="node4" class="node">
<title>challenge__seq</title>
<polygon fill="#e0ffe0" stroke="transparent" points="327.5,-419 327.5,-440 358.5,-440 358.5,-419 327.5,-419"/>
<polygon fill="none" stroke="black" points="327.5,-419 327.5,-440 358.5,-440 358.5,-419 327.5,-419"/>
<text text-anchor="start" x="330.5" y="-425.8" font-family="Times,serif" font-size="14.00">pos</text>
<polygon fill="#e0ffe0" stroke="transparent" points="358.5,-419 358.5,-440 461.5,-440 461.5,-419 358.5,-419"/>
<polygon fill="none" stroke="black" points="358.5,-419 358.5,-440 461.5,-440 461.5,-419 358.5,-419"/>
<text text-anchor="start" x="396" y="-425.8" font-family="Times,serif" font-size="14.00">size</text>
<polygon fill="#e0ffe0" stroke="transparent" points="461.5,-419 461.5,-440 507.5,-440 507.5,-419 461.5,-419"/>
<polygon fill="none" stroke="black" points="461.5,-419 461.5,-440 507.5,-440 507.5,-419 461.5,-419"/>
<text text-anchor="start" x="468.5" y="-425.8" font-family="Times,serif" font-size="14.00">type</text>
<polygon fill="#e0ffe0" stroke="transparent" points="507.5,-419 507.5,-440 610.5,-440 610.5,-419 507.5,-419"/>
<polygon fill="none" stroke="black" points="507.5,-419 507.5,-440 610.5,-440 610.5,-419 507.5,-419"/>
<text text-anchor="start" x="552" y="-425.8" font-family="Times,serif" font-size="14.00">id</text>
<g id="a_node4_24"><a xlink:title="length of the challenge, when no challenge is present use length of 0x00">
<polygon fill="none" stroke="black" points="327.5,-398 327.5,-419 358.5,-419 358.5,-398 327.5,-398"/>
<text text-anchor="start" x="338" y="-404.8" font-family="Times,serif" font-size="14.00">0</text>
</a>
</g>
<g id="a_node4_25"><a xlink:title="length of the challenge, when no challenge is present use length of 0x00">
<polygon fill="none" stroke="black" points="358.5,-398 358.5,-419 461.5,-419 461.5,-398 358.5,-398"/>
<text text-anchor="start" x="405" y="-404.8" font-family="Times,serif" font-size="14.00">1</text>
</a>
</g>
<g id="a_node4_26"><a xlink:title="length of the challenge, when no challenge is present use length of 0x00">
<polygon fill="none" stroke="black" points="461.5,-398 461.5,-419 507.5,-419 507.5,-398 461.5,-398"/>
<text text-anchor="start" x="475" y="-404.8" font-family="Times,serif" font-size="14.00">u1</text>
</a>
</g>
<g id="a_node4_27"><a xlink:title="length of the challenge, when no challenge is present use length of 0x00">
<polygon fill="none" stroke="black" points="507.5,-398 507.5,-419 610.5,-419 610.5,-398 507.5,-398"/>
<text text-anchor="start" x="510.5" y="-404.8" font-family="Times,serif" font-size="14.00">len_challenge</text>
</a>
</g>
<g id="a_node4_28"><a xlink:title="challenge as an array of raw bytes">
<polygon fill="none" stroke="black" points="327.5,-377 327.5,-398 358.5,-398 358.5,-377 327.5,-377"/>
<text text-anchor="start" x="338" y="-383.8" font-family="Times,serif" font-size="14.00">1</text>
</a>
</g>
<g id="a_node4_29"><a xlink:title="challenge as an array of raw bytes">
<polygon fill="none" stroke="black" points="358.5,-377 358.5,-398 461.5,-398 461.5,-377 358.5,-377"/>
<text text-anchor="start" x="361.5" y="-383.8" font-family="Times,serif" font-size="14.00">len_challenge</text>
</a>
</g>
<g id="a_node4_30"><a xlink:title="challenge as an array of raw bytes">
<polygon fill="none" stroke="black" points="461.5,-377 461.5,-398 507.5,-398 507.5,-377 461.5,-377"/>
<text text-anchor="start" x="464.5" y="-383.8" font-family="Times,serif" font-size="14.00">bytes</text>
</a>
</g>
<g id="a_node4_31"><a xlink:title="challenge as an array of raw bytes">
<polygon fill="none" stroke="black" points="507.5,-377 507.5,-398 610.5,-398 610.5,-377 507.5,-377"/>
<text text-anchor="start" x="524.5" y="-383.8" font-family="Times,serif" font-size="14.00">challenge</text>
</a>
</g>
</g>
<!-- nano_trusted_desc__seq&#45;&gt;challenge__seq -->
<g id="edge1" class="edge">
<title>nano_trusted_desc__seq:challenge_type&#45;&gt;challenge__seq</title>
<path fill="none" stroke="black" stroke-width="2" d="M276.5,-330C297.23,-330 292.66,-351.58 310.35,-368.17"/>
<polygon fill="black" stroke="black" stroke-width="2" points="308.58,-371.22 318.68,-374.44 312.8,-365.63 308.58,-371.22"/>
</g>
<!-- signature__seq -->
<g id="node6" class="node">
<title>signature__seq</title>
<polygon fill="#e0ffe0" stroke="transparent" points="374.5,-180 374.5,-201 405.5,-201 405.5,-180 374.5,-180"/>
<polygon fill="none" stroke="black" points="374.5,-180 374.5,-201 405.5,-201 405.5,-180 374.5,-180"/>
<text text-anchor="start" x="377.5" y="-186.8" font-family="Times,serif" font-size="14.00">pos</text>
<polygon fill="#e0ffe0" stroke="transparent" points="405.5,-180 405.5,-201 461.5,-201 461.5,-180 405.5,-180"/>
<polygon fill="none" stroke="black" points="405.5,-180 405.5,-201 461.5,-201 461.5,-180 405.5,-180"/>
<text text-anchor="start" x="419.5" y="-186.8" font-family="Times,serif" font-size="14.00">size</text>
<polygon fill="#e0ffe0" stroke="transparent" points="461.5,-180 461.5,-201 507.5,-201 507.5,-180 461.5,-180"/>
<polygon fill="none" stroke="black" points="461.5,-180 461.5,-201 507.5,-201 507.5,-180 461.5,-180"/>
<text text-anchor="start" x="468.5" y="-186.8" font-family="Times,serif" font-size="14.00">type</text>
<polygon fill="#e0ffe0" stroke="transparent" points="507.5,-180 507.5,-201 563.5,-201 563.5,-180 507.5,-180"/>
<polygon fill="none" stroke="black" points="507.5,-180 507.5,-201 563.5,-201 563.5,-180 507.5,-180"/>
<text text-anchor="start" x="528.5" y="-186.8" font-family="Times,serif" font-size="14.00">id</text>
<g id="a_node6_32"><a xlink:title="Signature length">
<polygon fill="none" stroke="black" points="374.5,-159 374.5,-180 405.5,-180 405.5,-159 374.5,-159"/>
<text text-anchor="start" x="385" y="-165.8" font-family="Times,serif" font-size="14.00">0</text>
</a>
</g>
<g id="a_node6_33"><a xlink:title="Signature length">
<polygon fill="none" stroke="black" points="405.5,-159 405.5,-180 461.5,-180 461.5,-159 405.5,-159"/>
<text text-anchor="start" x="428.5" y="-165.8" font-family="Times,serif" font-size="14.00">1</text>
</a>
</g>
<g id="a_node6_34"><a xlink:title="Signature length">
<polygon fill="none" stroke="black" points="461.5,-159 461.5,-180 507.5,-180 507.5,-159 461.5,-159"/>
<text text-anchor="start" x="475" y="-165.8" font-family="Times,serif" font-size="14.00">u1</text>
</a>
</g>
<g id="a_node6_35"><a xlink:title="Signature length">
<polygon fill="none" stroke="black" points="507.5,-159 507.5,-180 563.5,-180 563.5,-159 507.5,-159"/>
<text text-anchor="start" x="510.5" y="-165.8" font-family="Times,serif" font-size="14.00">len_sig</text>
</a>
</g>
<g id="a_node6_36"><a xlink:title="DER encoded signature. Signature is computed over serialized fields [type , version , key , challenge , body]. Signature key and algorithm is determined by the [key] field and corresponding certificate. ">
<polygon fill="none" stroke="black" points="374.5,-138 374.5,-159 405.5,-159 405.5,-138 374.5,-138"/>
<text text-anchor="start" x="385" y="-144.8" font-family="Times,serif" font-size="14.00">1</text>
</a>
</g>
<g id="a_node6_37"><a xlink:title="DER encoded signature. Signature is computed over serialized fields [type , version , key , challenge , body]. Signature key and algorithm is determined by the [key] field and corresponding certificate. ">
<polygon fill="none" stroke="black" points="405.5,-138 405.5,-159 461.5,-159 461.5,-138 405.5,-138"/>
<text text-anchor="start" x="408.5" y="-144.8" font-family="Times,serif" font-size="14.00">len_sig</text>
</a>
</g>
<g id="a_node6_38"><a xlink:title="DER encoded signature. Signature is computed over serialized fields [type , version , key , challenge , body]. Signature key and algorithm is determined by the [key] field and corresponding certificate. ">
<polygon fill="none" stroke="black" points="461.5,-138 461.5,-159 507.5,-159 507.5,-138 461.5,-138"/>
<text text-anchor="start" x="464.5" y="-144.8" font-family="Times,serif" font-size="14.00">bytes</text>
</a>
</g>
<g id="a_node6_39"><a xlink:title="DER encoded signature. Signature is computed over serialized fields [type , version , key , challenge , body]. Signature key and algorithm is determined by the [key] field and corresponding certificate. ">
<polygon fill="none" stroke="black" points="507.5,-138 507.5,-159 563.5,-159 563.5,-138 507.5,-138"/>
<text text-anchor="start" x="524.5" y="-144.8" font-family="Times,serif" font-size="14.00">sig</text>
</a>
</g>
</g>
<!-- nano_trusted_desc__seq&#45;&gt;signature__seq -->
<g id="edge7" class="edge">
<title>nano_trusted_desc__seq:sig_type&#45;&gt;signature__seq</title>
<path fill="none" stroke="black" stroke-width="2" d="M276.5,-288C314.41,-288 282.06,-234.49 311,-210 324.06,-198.95 339.79,-190.89 356.17,-185.03"/>
<polygon fill="black" stroke="black" stroke-width="2" points="357.48,-188.28 365.88,-181.82 355.28,-181.64 357.48,-188.28"/>
</g>
<!-- nft_body__seq -->
<g id="node3" class="node">
<title>nft_body__seq</title>
<polygon fill="#e0ffe0" stroke="transparent" points="679.5,-329 679.5,-350 710.5,-350 710.5,-329 679.5,-329"/>
<polygon fill="none" stroke="black" points="679.5,-329 679.5,-350 710.5,-350 710.5,-329 679.5,-329"/>
<text text-anchor="start" x="682.5" y="-335.8" font-family="Times,serif" font-size="14.00">pos</text>
<polygon fill="#e0ffe0" stroke="transparent" points="710.5,-329 710.5,-350 784.5,-350 784.5,-329 710.5,-329"/>
<polygon fill="none" stroke="black" points="710.5,-329 710.5,-350 784.5,-350 784.5,-329 710.5,-329"/>
<text text-anchor="start" x="733.5" y="-335.8" font-family="Times,serif" font-size="14.00">size</text>
<polygon fill="#e0ffe0" stroke="transparent" points="784.5,-329 784.5,-350 830.5,-350 830.5,-329 784.5,-329"/>
<polygon fill="none" stroke="black" points="784.5,-329 784.5,-350 830.5,-350 830.5,-329 784.5,-329"/>
<text text-anchor="start" x="791.5" y="-335.8" font-family="Times,serif" font-size="14.00">type</text>
<polygon fill="#e0ffe0" stroke="transparent" points="830.5,-329 830.5,-350 904.5,-350 904.5,-329 830.5,-329"/>
<polygon fill="none" stroke="black" points="830.5,-329 830.5,-350 904.5,-350 904.5,-329 830.5,-329"/>
<text text-anchor="start" x="860.5" y="-335.8" font-family="Times,serif" font-size="14.00">id</text>
<g id="a_node3_40"><a xlink:title="Length of the name field">
<polygon fill="none" stroke="black" points="679.5,-308 679.5,-329 710.5,-329 710.5,-308 679.5,-308"/>
<text text-anchor="start" x="690" y="-314.8" font-family="Times,serif" font-size="14.00">0</text>
</a>
</g>
<g id="a_node3_41"><a xlink:title="Length of the name field">
<polygon fill="none" stroke="black" points="710.5,-308 710.5,-329 784.5,-329 784.5,-308 710.5,-308"/>
<text text-anchor="start" x="742.5" y="-314.8" font-family="Times,serif" font-size="14.00">1</text>
</a>
</g>
<g id="a_node3_42"><a xlink:title="Length of the name field">
<polygon fill="none" stroke="black" points="784.5,-308 784.5,-329 830.5,-329 830.5,-308 784.5,-308"/>
<text text-anchor="start" x="798" y="-314.8" font-family="Times,serif" font-size="14.00">u1</text>
</a>
</g>
<g id="a_node3_43"><a xlink:title="Length of the name field">
<polygon fill="none" stroke="black" points="830.5,-308 830.5,-329 904.5,-329 904.5,-308 830.5,-308"/>
<text text-anchor="start" x="833.5" y="-314.8" font-family="Times,serif" font-size="14.00">len_name</text>
</a>
</g>
<g id="a_node3_44"><a xlink:title="UTF&#45;8 encoded name of the collection corresponding to the address">
<polygon fill="none" stroke="black" points="679.5,-287 679.5,-308 710.5,-308 710.5,-287 679.5,-287"/>
<text text-anchor="start" x="690" y="-293.8" font-family="Times,serif" font-size="14.00">1</text>
</a>
</g>
<g id="a_node3_45"><a xlink:title="UTF&#45;8 encoded name of the collection corresponding to the address">
<polygon fill="none" stroke="black" points="710.5,-287 710.5,-308 784.5,-308 784.5,-287 710.5,-287"/>
<text text-anchor="start" x="713.5" y="-293.8" font-family="Times,serif" font-size="14.00">len_name</text>
</a>
</g>
<g id="a_node3_46"><a xlink:title="UTF&#45;8 encoded name of the collection corresponding to the address">
<polygon fill="none" stroke="black" points="784.5,-287 784.5,-308 830.5,-308 830.5,-287 784.5,-287"/>
<text text-anchor="start" x="787.5" y="-293.8" font-family="Times,serif" font-size="14.00">bytes</text>
</a>
</g>
<g id="a_node3_47"><a xlink:title="UTF&#45;8 encoded name of the collection corresponding to the address">
<polygon fill="none" stroke="black" points="830.5,-287 830.5,-308 904.5,-308 904.5,-287 830.5,-287"/>
<text text-anchor="start" x="847.5" y="-293.8" font-family="Times,serif" font-size="14.00">name</text>
</a>
</g>
<g id="a_node3_48"><a xlink:title="Blockchain smartcontract address associated with this collection">
<polygon fill="none" stroke="black" points="679.5,-266 679.5,-287 710.5,-287 710.5,-266 679.5,-266"/>
<text text-anchor="start" x="688" y="-272.8" font-family="Times,serif" font-size="14.00">...</text>
</a>
</g>
<g id="a_node3_49"><a xlink:title="Blockchain smartcontract address associated with this collection">
<polygon fill="none" stroke="black" points="710.5,-266 710.5,-287 784.5,-287 784.5,-266 710.5,-266"/>
<text text-anchor="start" x="738" y="-272.8" font-family="Times,serif" font-size="14.00">20</text>
</a>
</g>
<g id="a_node3_50"><a xlink:title="Blockchain smartcontract address associated with this collection">
<polygon fill="none" stroke="black" points="784.5,-266 784.5,-287 830.5,-287 830.5,-266 784.5,-266"/>
<text text-anchor="start" x="787.5" y="-272.8" font-family="Times,serif" font-size="14.00">bytes</text>
</a>
</g>
<g id="a_node3_51"><a xlink:title="Blockchain smartcontract address associated with this collection">
<polygon fill="none" stroke="black" points="830.5,-266 830.5,-287 904.5,-287 904.5,-266 830.5,-266"/>
<text text-anchor="start" x="839" y="-272.8" font-family="Times,serif" font-size="14.00">address</text>
</a>
</g>
<g id="a_node3_52"><a xlink:title="Blockchain id, as specified in XXX">
<polygon fill="none" stroke="black" points="679.5,-245 679.5,-266 710.5,-266 710.5,-245 679.5,-245"/>
<text text-anchor="start" x="688" y="-251.8" font-family="Times,serif" font-size="14.00">...</text>
</a>
</g>
<g id="a_node3_53"><a xlink:title="Blockchain id, as specified in XXX">
<polygon fill="none" stroke="black" points="710.5,-245 710.5,-266 784.5,-266 784.5,-245 710.5,-245"/>
<text text-anchor="start" x="742.5" y="-251.8" font-family="Times,serif" font-size="14.00">8</text>
</a>
</g>
<g id="a_node3_54"><a xlink:title="Blockchain id, as specified in XXX">
<polygon fill="none" stroke="black" points="784.5,-245 784.5,-266 830.5,-266 830.5,-245 784.5,-245"/>
<text text-anchor="start" x="787.5" y="-251.8" font-family="Times,serif" font-size="14.00">bytes</text>
</a>
</g>
<g id="a_node3_55"><a xlink:title="Blockchain id, as specified in XXX">
<polygon fill="none" stroke="black" points="830.5,-245 830.5,-266 904.5,-266 904.5,-245 830.5,-245"/>
<text text-anchor="start" x="838" y="-251.8" font-family="Times,serif" font-size="14.00">chain_id</text>
</a>
</g>
</g>
<!-- nano_trusted_desc__seq_body_switch&#45;&gt;nft_body__seq -->
<g id="edge4" class="edge">
<title>nano_trusted_desc__seq_body_switch:case1&#45;&gt;nft_body__seq</title>
<path fill="none" stroke="black" stroke-width="2" d="M580.5,-298C606.44,-298 634.19,-298 660.73,-298"/>
<polygon fill="black" stroke="black" stroke-width="2" points="660.84,-301.5 670.84,-298 660.84,-294.5 660.84,-301.5"/>
</g>
<!-- plugin_body__seq -->
<g id="node5" class="node">
<title>plugin_body__seq</title>
<polygon fill="#e0ffe0" stroke="transparent" points="679.5,-529 679.5,-550 710.5,-550 710.5,-529 679.5,-529"/>
<polygon fill="none" stroke="black" points="679.5,-529 679.5,-550 710.5,-550 710.5,-529 679.5,-529"/>
<text text-anchor="start" x="682.5" y="-535.8" font-family="Times,serif" font-size="14.00">pos</text>
<polygon fill="#e0ffe0" stroke="transparent" points="710.5,-529 710.5,-550 784.5,-550 784.5,-529 710.5,-529"/>
<polygon fill="none" stroke="black" points="710.5,-529 710.5,-550 784.5,-550 784.5,-529 710.5,-529"/>
<text text-anchor="start" x="733.5" y="-535.8" font-family="Times,serif" font-size="14.00">size</text>
<polygon fill="#e0ffe0" stroke="transparent" points="784.5,-529 784.5,-550 830.5,-550 830.5,-529 784.5,-529"/>
<polygon fill="none" stroke="black" points="784.5,-529 784.5,-550 830.5,-550 830.5,-529 784.5,-529"/>
<text text-anchor="start" x="791.5" y="-535.8" font-family="Times,serif" font-size="14.00">type</text>
<polygon fill="#e0ffe0" stroke="transparent" points="830.5,-529 830.5,-550 904.5,-550 904.5,-529 830.5,-529"/>
<polygon fill="none" stroke="black" points="830.5,-529 830.5,-550 904.5,-550 904.5,-529 830.5,-529"/>
<text text-anchor="start" x="860.5" y="-535.8" font-family="Times,serif" font-size="14.00">id</text>
<g id="a_node5_56"><a xlink:title="Length of the name field">
<polygon fill="none" stroke="black" points="679.5,-508 679.5,-529 710.5,-529 710.5,-508 679.5,-508"/>
<text text-anchor="start" x="690" y="-514.8" font-family="Times,serif" font-size="14.00">0</text>
</a>
</g>
<g id="a_node5_57"><a xlink:title="Length of the name field">
<polygon fill="none" stroke="black" points="710.5,-508 710.5,-529 784.5,-529 784.5,-508 710.5,-508"/>
<text text-anchor="start" x="742.5" y="-514.8" font-family="Times,serif" font-size="14.00">1</text>
</a>
</g>
<g id="a_node5_58"><a xlink:title="Length of the name field">
<polygon fill="none" stroke="black" points="784.5,-508 784.5,-529 830.5,-529 830.5,-508 784.5,-508"/>
<text text-anchor="start" x="798" y="-514.8" font-family="Times,serif" font-size="14.00">u1</text>
</a>
</g>
<g id="a_node5_59"><a xlink:title="Length of the name field">
<polygon fill="none" stroke="black" points="830.5,-508 830.5,-529 904.5,-529 904.5,-508 830.5,-508"/>
<text text-anchor="start" x="833.5" y="-514.8" font-family="Times,serif" font-size="14.00">len_name</text>
</a>
</g>
<g id="a_node5_60"><a xlink:title="ASCII encoded name of the plugin to use">
<polygon fill="none" stroke="black" points="679.5,-487 679.5,-508 710.5,-508 710.5,-487 679.5,-487"/>
<text text-anchor="start" x="690" y="-493.8" font-family="Times,serif" font-size="14.00">1</text>
</a>
</g>
<g id="a_node5_61"><a xlink:title="ASCII encoded name of the plugin to use">
<polygon fill="none" stroke="black" points="710.5,-487 710.5,-508 784.5,-508 784.5,-487 710.5,-487"/>
<text text-anchor="start" x="713.5" y="-493.8" font-family="Times,serif" font-size="14.00">len_name</text>
</a>
</g>
<g id="a_node5_62"><a xlink:title="ASCII encoded name of the plugin to use">
<polygon fill="none" stroke="black" points="784.5,-487 784.5,-508 830.5,-508 830.5,-487 784.5,-487"/>
<text text-anchor="start" x="787.5" y="-493.8" font-family="Times,serif" font-size="14.00">bytes</text>
</a>
</g>
<g id="a_node5_63"><a xlink:title="ASCII encoded name of the plugin to use">
<polygon fill="none" stroke="black" points="830.5,-487 830.5,-508 904.5,-508 904.5,-487 830.5,-487"/>
<text text-anchor="start" x="847.5" y="-493.8" font-family="Times,serif" font-size="14.00">name</text>
</a>
</g>
<g id="a_node5_64"><a xlink:title="Blockchain smartcontract address associated with this plugin">
<polygon fill="none" stroke="black" points="679.5,-466 679.5,-487 710.5,-487 710.5,-466 679.5,-466"/>
<text text-anchor="start" x="688" y="-472.8" font-family="Times,serif" font-size="14.00">...</text>
</a>
</g>
<g id="a_node5_65"><a xlink:title="Blockchain smartcontract address associated with this plugin">
<polygon fill="none" stroke="black" points="710.5,-466 710.5,-487 784.5,-487 784.5,-466 710.5,-466"/>
<text text-anchor="start" x="738" y="-472.8" font-family="Times,serif" font-size="14.00">20</text>
</a>
</g>
<g id="a_node5_66"><a xlink:title="Blockchain smartcontract address associated with this plugin">
<polygon fill="none" stroke="black" points="784.5,-466 784.5,-487 830.5,-487 830.5,-466 784.5,-466"/>
<text text-anchor="start" x="787.5" y="-472.8" font-family="Times,serif" font-size="14.00">bytes</text>
</a>
</g>
<g id="a_node5_67"><a xlink:title="Blockchain smartcontract address associated with this plugin">
<polygon fill="none" stroke="black" points="830.5,-466 830.5,-487 904.5,-487 904.5,-466 830.5,-466"/>
<text text-anchor="start" x="839" y="-472.8" font-family="Times,serif" font-size="14.00">address</text>
</a>
</g>
<g id="a_node5_68"><a xlink:title="function selector in the smartcontract associated with this plugin">
<polygon fill="none" stroke="black" points="679.5,-445 679.5,-466 710.5,-466 710.5,-445 679.5,-445"/>
<text text-anchor="start" x="688" y="-451.8" font-family="Times,serif" font-size="14.00">...</text>
</a>
</g>
<g id="a_node5_69"><a xlink:title="function selector in the smartcontract associated with this plugin">
<polygon fill="none" stroke="black" points="710.5,-445 710.5,-466 784.5,-466 784.5,-445 710.5,-445"/>
<text text-anchor="start" x="742.5" y="-451.8" font-family="Times,serif" font-size="14.00">4</text>
</a>
</g>
<g id="a_node5_70"><a xlink:title="function selector in the smartcontract associated with this plugin">
<polygon fill="none" stroke="black" points="784.5,-445 784.5,-466 830.5,-466 830.5,-445 784.5,-445"/>
<text text-anchor="start" x="787.5" y="-451.8" font-family="Times,serif" font-size="14.00">bytes</text>
</a>
</g>
<g id="a_node5_71"><a xlink:title="function selector in the smartcontract associated with this plugin">
<polygon fill="none" stroke="black" points="830.5,-445 830.5,-466 904.5,-466 904.5,-445 830.5,-445"/>
<text text-anchor="start" x="838.5" y="-451.8" font-family="Times,serif" font-size="14.00">selector</text>
</a>
</g>
<g id="a_node5_72"><a xlink:title="Blockchain id, as specified in XXX">
<polygon fill="none" stroke="black" points="679.5,-424 679.5,-445 710.5,-445 710.5,-424 679.5,-424"/>
<text text-anchor="start" x="688" y="-430.8" font-family="Times,serif" font-size="14.00">...</text>
</a>
</g>
<g id="a_node5_73"><a xlink:title="Blockchain id, as specified in XXX">
<polygon fill="none" stroke="black" points="710.5,-424 710.5,-445 784.5,-445 784.5,-424 710.5,-424"/>
<text text-anchor="start" x="742.5" y="-430.8" font-family="Times,serif" font-size="14.00">8</text>
</a>
</g>
<g id="a_node5_74"><a xlink:title="Blockchain id, as specified in XXX">
<polygon fill="none" stroke="black" points="784.5,-424 784.5,-445 830.5,-445 830.5,-424 784.5,-424"/>
<text text-anchor="start" x="787.5" y="-430.8" font-family="Times,serif" font-size="14.00">bytes</text>
</a>
</g>
<g id="a_node5_75"><a xlink:title="Blockchain id, as specified in XXX">
<polygon fill="none" stroke="black" points="830.5,-424 830.5,-445 904.5,-445 904.5,-424 830.5,-424"/>
<text text-anchor="start" x="838" y="-430.8" font-family="Times,serif" font-size="14.00">chain_id</text>
</a>
</g>
</g>
<!-- nano_trusted_desc__seq_body_switch&#45;&gt;plugin_body__seq -->
<g id="edge3" class="edge">
<title>nano_trusted_desc__seq_body_switch:case0&#45;&gt;plugin_body__seq</title>
<path fill="none" stroke="black" stroke-width="2" d="M580.5,-320C607.72,-320 610.19,-338.84 626,-361 639.19,-379.48 630.75,-391.18 646,-408 651.2,-413.73 656.91,-419.14 662.98,-424.22"/>
<polygon fill="black" stroke="black" stroke-width="2" points="660.83,-426.99 670.83,-430.48 665.19,-421.51 660.83,-426.99"/>
</g>
<!-- name_body__seq -->
<g id="node7" class="node">
<title>name_body__seq</title>
<polygon fill="#e0ffe0" stroke="transparent" points="662.5,-133 662.5,-154 693.5,-154 693.5,-133 662.5,-133"/>
<polygon fill="none" stroke="black" points="662.5,-133 662.5,-154 693.5,-154 693.5,-133 662.5,-133"/>
<text text-anchor="start" x="665.5" y="-139.8" font-family="Times,serif" font-size="14.00">pos</text>
<polygon fill="#e0ffe0" stroke="transparent" points="693.5,-133 693.5,-154 784.5,-154 784.5,-133 693.5,-133"/>
<polygon fill="none" stroke="black" points="693.5,-133 693.5,-154 784.5,-154 784.5,-133 693.5,-133"/>
<text text-anchor="start" x="725" y="-139.8" font-family="Times,serif" font-size="14.00">size</text>
<polygon fill="#e0ffe0" stroke="transparent" points="784.5,-133 784.5,-154 830.5,-154 830.5,-133 784.5,-133"/>
<polygon fill="none" stroke="black" points="784.5,-133 784.5,-154 830.5,-154 830.5,-133 784.5,-133"/>
<text text-anchor="start" x="791.5" y="-139.8" font-family="Times,serif" font-size="14.00">type</text>
<polygon fill="#e0ffe0" stroke="transparent" points="830.5,-133 830.5,-154 921.5,-154 921.5,-133 830.5,-133"/>
<polygon fill="none" stroke="black" points="830.5,-133 830.5,-154 921.5,-154 921.5,-133 830.5,-133"/>
<text text-anchor="start" x="869" y="-139.8" font-family="Times,serif" font-size="14.00">id</text>
<g id="a_node7_76"><a xlink:title="Length of the name field">
<polygon fill="none" stroke="black" points="662.5,-112 662.5,-133 693.5,-133 693.5,-112 662.5,-112"/>
<text text-anchor="start" x="673" y="-118.8" font-family="Times,serif" font-size="14.00">0</text>
</a>
</g>
<g id="a_node7_77"><a xlink:title="Length of the name field">
<polygon fill="none" stroke="black" points="693.5,-112 693.5,-133 784.5,-133 784.5,-112 693.5,-112"/>
<text text-anchor="start" x="734" y="-118.8" font-family="Times,serif" font-size="14.00">1</text>
</a>
</g>
<g id="a_node7_78"><a xlink:title="Length of the name field">
<polygon fill="none" stroke="black" points="784.5,-112 784.5,-133 830.5,-133 830.5,-112 784.5,-112"/>
<text text-anchor="start" x="798" y="-118.8" font-family="Times,serif" font-size="14.00">u1</text>
</a>
</g>
<g id="a_node7_79"><a xlink:title="Length of the name field">
<polygon fill="none" stroke="black" points="830.5,-112 830.5,-133 921.5,-133 921.5,-112 830.5,-112"/>
<text text-anchor="start" x="842" y="-118.8" font-family="Times,serif" font-size="14.00">len_name</text>
</a>
</g>
<g id="a_node7_80"><a xlink:title="UTF&#45;8 encoded truted name associated with this address">
<polygon fill="none" stroke="black" points="662.5,-91 662.5,-112 693.5,-112 693.5,-91 662.5,-91"/>
<text text-anchor="start" x="673" y="-97.8" font-family="Times,serif" font-size="14.00">1</text>
</a>
</g>
<g id="a_node7_81"><a xlink:title="UTF&#45;8 encoded truted name associated with this address">
<polygon fill="none" stroke="black" points="693.5,-91 693.5,-112 784.5,-112 784.5,-91 693.5,-91"/>
<text text-anchor="start" x="705" y="-97.8" font-family="Times,serif" font-size="14.00">len_name</text>
</a>
</g>
<g id="a_node7_82"><a xlink:title="UTF&#45;8 encoded truted name associated with this address">
<polygon fill="none" stroke="black" points="784.5,-91 784.5,-112 830.5,-112 830.5,-91 784.5,-91"/>
<text text-anchor="start" x="787.5" y="-97.8" font-family="Times,serif" font-size="14.00">bytes</text>
</a>
</g>
<g id="a_node7_83"><a xlink:title="UTF&#45;8 encoded truted name associated with this address">
<polygon fill="none" stroke="black" points="830.5,-91 830.5,-112 921.5,-112 921.5,-91 830.5,-91"/>
<text text-anchor="start" x="856" y="-97.8" font-family="Times,serif" font-size="14.00">name</text>
</a>
</g>
<g id="a_node7_84"><a xlink:title="SLIP 44 coin type as in [https://github.com/ensdomains/address&#45;encoder]">
<polygon fill="none" stroke="black" points="662.5,-70 662.5,-91 693.5,-91 693.5,-70 662.5,-70"/>
<text text-anchor="start" x="671" y="-76.8" font-family="Times,serif" font-size="14.00">...</text>
</a>
</g>
<g id="a_node7_85"><a xlink:title="SLIP 44 coin type as in [https://github.com/ensdomains/address&#45;encoder]">
<polygon fill="none" stroke="black" points="693.5,-70 693.5,-91 784.5,-91 784.5,-70 693.5,-70"/>
<text text-anchor="start" x="734" y="-76.8" font-family="Times,serif" font-size="14.00">4</text>
</a>
</g>
<g id="a_node7_86"><a xlink:title="SLIP 44 coin type as in [https://github.com/ensdomains/address&#45;encoder]">
<polygon fill="none" stroke="black" points="784.5,-70 784.5,-91 830.5,-91 830.5,-70 784.5,-70"/>
<text text-anchor="start" x="787.5" y="-76.8" font-family="Times,serif" font-size="14.00">bytes</text>
</a>
</g>
<g id="a_node7_87"><a xlink:title="SLIP 44 coin type as in [https://github.com/ensdomains/address&#45;encoder]">
<polygon fill="none" stroke="black" points="830.5,-70 830.5,-91 921.5,-91 921.5,-70 830.5,-70"/>
<text text-anchor="start" x="842" y="-76.8" font-family="Times,serif" font-size="14.00">coin_type</text>
</a>
</g>
<g id="a_node7_88"><a xlink:title="Length of the address field">
<polygon fill="none" stroke="black" points="662.5,-49 662.5,-70 693.5,-70 693.5,-49 662.5,-49"/>
<text text-anchor="start" x="671" y="-55.8" font-family="Times,serif" font-size="14.00">...</text>
</a>
</g>
<g id="a_node7_89"><a xlink:title="Length of the address field">
<polygon fill="none" stroke="black" points="693.5,-49 693.5,-70 784.5,-70 784.5,-49 693.5,-49"/>
<text text-anchor="start" x="734" y="-55.8" font-family="Times,serif" font-size="14.00">1</text>
</a>
</g>
<g id="a_node7_90"><a xlink:title="Length of the address field">
<polygon fill="none" stroke="black" points="784.5,-49 784.5,-70 830.5,-70 830.5,-49 784.5,-49"/>
<text text-anchor="start" x="798" y="-55.8" font-family="Times,serif" font-size="14.00">u1</text>
</a>
</g>
<g id="a_node7_91"><a xlink:title="Length of the address field">
<polygon fill="none" stroke="black" points="830.5,-49 830.5,-70 921.5,-70 921.5,-49 830.5,-49"/>
<text text-anchor="start" x="833.5" y="-55.8" font-family="Times,serif" font-size="14.00">len_address</text>
</a>
</g>
<g id="a_node7_92"><a xlink:title="Address value for this trusted name">
<polygon fill="none" stroke="black" points="662.5,-28 662.5,-49 693.5,-49 693.5,-28 662.5,-28"/>
<text text-anchor="start" x="671" y="-34.8" font-family="Times,serif" font-size="14.00">...</text>
</a>
</g>
<g id="a_node7_93"><a xlink:title="Address value for this trusted name">
<polygon fill="none" stroke="black" points="693.5,-28 693.5,-49 784.5,-49 784.5,-28 693.5,-28"/>
<text text-anchor="start" x="696.5" y="-34.8" font-family="Times,serif" font-size="14.00">len_address</text>
</a>
</g>
<g id="a_node7_94"><a xlink:title="Address value for this trusted name">
<polygon fill="none" stroke="black" points="784.5,-28 784.5,-49 830.5,-49 830.5,-28 784.5,-28"/>
<text text-anchor="start" x="787.5" y="-34.8" font-family="Times,serif" font-size="14.00">bytes</text>
</a>
</g>
<g id="a_node7_95"><a xlink:title="Address value for this trusted name">
<polygon fill="none" stroke="black" points="830.5,-28 830.5,-49 921.5,-49 921.5,-28 830.5,-28"/>
<text text-anchor="start" x="847.5" y="-34.8" font-family="Times,serif" font-size="14.00">address</text>
</a>
</g>
</g>
<!-- nano_trusted_desc__seq_body_switch&#45;&gt;name_body__seq -->
<g id="edge5" class="edge">
<title>nano_trusted_desc__seq_body_switch:case2&#45;&gt;name_body__seq</title>
<path fill="none" stroke="black" stroke-width="2" d="M580.5,-277C602.25,-277 609.09,-272.67 626,-259 638.46,-248.93 635.7,-241.27 646,-229 664.35,-207.13 685.84,-185.06 706.55,-165.18"/>
<polygon fill="black" stroke="black" stroke-width="2" points="709,-167.67 713.83,-158.24 704.18,-162.6 709,-167.67"/>
</g>
<!-- nft_body__seq&#45;&gt;nft_body__seq -->
<g id="edge8" class="edge">
<title>nft_body__seq:len_name_type&#45;&gt;nft_body__seq:name_size</title>
<path fill="none" stroke="#404040" d="M895.17,-329.02C945.52,-350.94 929.34,-372.5 807.5,-372.5 693.28,-372.5 671.91,-339.01 711.18,-313.14"/>
<polygon fill="#404040" stroke="#404040" points="712.96,-316.15 719.83,-308.08 709.43,-310.11 712.96,-316.15"/>
</g>
<!-- challenge__seq&#45;&gt;challenge__seq -->
<g id="edge9" class="edge">
<title>challenge__seq:len_challenge_type&#45;&gt;challenge__seq:challenge_size</title>
<path fill="none" stroke="#404040" d="M594.22,-419.12C634.01,-437.83 611.24,-462.5 484.5,-462.5 364.1,-462.5 337.52,-427.48 369.29,-403.58"/>
<polygon fill="#404040" stroke="#404040" points="371.44,-406.36 378.03,-398.07 367.71,-400.44 371.44,-406.36"/>
</g>
<!-- plugin_body__seq&#45;&gt;plugin_body__seq -->
<g id="edge10" class="edge">
<title>plugin_body__seq:len_name_type&#45;&gt;plugin_body__seq:name_size</title>
<path fill="none" stroke="#404040" d="M893.1,-529.09C945.94,-552.95 930.99,-572 807.5,-572 689.96,-572 670.75,-540.04 714.75,-513"/>
<polygon fill="#404040" stroke="#404040" points="716.66,-515.95 723.69,-508.02 713.25,-509.83 716.66,-515.95"/>
</g>
<!-- signature__seq&#45;&gt;signature__seq -->
<g id="edge11" class="edge">
<title>signature__seq:len_sig_type&#45;&gt;signature__seq:sig_size</title>
<path fill="none" stroke="#404040" d="M563.52,-177.23C612.56,-196.17 597.16,-223.5 484.5,-223.5 379.32,-223.5 358.91,-186.04 396.57,-162.17"/>
<polygon fill="#404040" stroke="#404040" points="398.39,-165.17 405.48,-157.3 395.03,-159.02 398.39,-165.17"/>
</g>
<!-- name_body__seq&#45;&gt;name_body__seq -->
<g id="edge12" class="edge">
<title>name_body__seq:len_name_type&#45;&gt;name_body__seq:name_size</title>
<path fill="none" stroke="#404040" d="M902.08,-133.09C954.81,-156.95 938.9,-176 807.5,-176 682.43,-176 661.99,-144.04 705.79,-117"/>
<polygon fill="#404040" stroke="#404040" points="707.68,-119.95 714.7,-112.02 704.27,-113.84 707.68,-119.95"/>
</g>
<!-- name_body__seq&#45;&gt;name_body__seq -->
<g id="edge13" class="edge">
<title>name_body__seq:len_address_type&#45;&gt;name_body__seq:address_size</title>
<path fill="none" stroke="#404040" d="M899.57,-70.03C955.27,-105.36 940.94,-176 807.5,-176 680.28,-176 661.32,-96.59 708.1,-55.46"/>
<polygon fill="#404040" stroke="#404040" points="710.41,-58.1 716.17,-49.2 706.12,-52.56 710.41,-58.1"/>
</g>
</g>
</svg>
